<mxfile host="Electron" modified="2023-05-23T13:13:56.167Z" agent="Mozilla/5.0 (Windows NT 10.0; Win64; x64) AppleWebKit/537.36 (KHTML, like Gecko) draw.io/21.2.8 Chrome/112.0.5615.165 Electron/24.2.0 Safari/537.36" etag="-Y1_rALXooc4eDrjfSmT" version="21.2.8" type="device">
  <diagram name="Page-1" id="MO4-myXLdu_Ek4T-tTRh">
    <mxGraphModel dx="1036" dy="614" grid="1" gridSize="10" guides="1" tooltips="1" connect="1" arrows="1" fold="1" page="1" pageScale="1" pageWidth="850" pageHeight="1100" math="0" shadow="0">
      <root>
        <mxCell id="0" />
        <mxCell id="1" parent="0" />
        <mxCell id="aGqC5lvothKLvyk-0-rh-12" value="" style="html=1;whiteSpace=wrap;fillColor=none;strokeColor=none;" parent="1" vertex="1">
          <mxGeometry x="40" y="80" width="80" height="120" as="geometry" />
        </mxCell>
        <mxCell id="aGqC5lvothKLvyk-0-rh-2" value="Любой&lt;br&gt;пользователь" style="shape=umlActor;verticalLabelPosition=bottom;verticalAlign=top;html=1;strokeWidth=2;" parent="1" vertex="1">
          <mxGeometry x="65" y="110" width="30" height="60" as="geometry" />
        </mxCell>
        <mxCell id="aGqC5lvothKLvyk-0-rh-3" value="&lt;b&gt;Мобильное приложение&lt;/b&gt;" style="rounded=1;whiteSpace=wrap;html=1;absoluteArcSize=1;arcSize=14;strokeWidth=2;verticalAlign=top;" parent="1" vertex="1">
          <mxGeometry x="160" y="40" width="160" height="100" as="geometry" />
        </mxCell>
        <mxCell id="aGqC5lvothKLvyk-0-rh-4" value="Регистрация" style="strokeWidth=2;html=1;shape=mxgraph.flowchart.start_1;whiteSpace=wrap;fontStyle=1" parent="1" vertex="1">
          <mxGeometry x="190" y="70" width="100" height="60" as="geometry" />
        </mxCell>
        <mxCell id="aGqC5lvothKLvyk-0-rh-5" value="&lt;b&gt;Электронная почта&lt;/b&gt;" style="rounded=1;whiteSpace=wrap;html=1;absoluteArcSize=1;arcSize=14;strokeWidth=2;verticalAlign=top;" parent="1" vertex="1">
          <mxGeometry x="160" y="160" width="160" height="100" as="geometry" />
        </mxCell>
        <mxCell id="aGqC5lvothKLvyk-0-rh-6" value="Активация аккаунта" style="strokeWidth=2;html=1;shape=mxgraph.flowchart.start_1;whiteSpace=wrap;fontStyle=1" parent="1" vertex="1">
          <mxGeometry x="190" y="190" width="100" height="60" as="geometry" />
        </mxCell>
        <mxCell id="aGqC5lvothKLvyk-0-rh-14" style="rounded=0;orthogonalLoop=1;jettySize=auto;html=1;exitX=1;exitY=0.5;exitDx=0;exitDy=0;entryX=0;entryY=0.5;entryDx=0;entryDy=0;entryPerimeter=0;strokeWidth=2;" parent="1" source="aGqC5lvothKLvyk-0-rh-12" target="aGqC5lvothKLvyk-0-rh-6" edge="1">
          <mxGeometry relative="1" as="geometry" />
        </mxCell>
        <mxCell id="aGqC5lvothKLvyk-0-rh-13" style="rounded=0;orthogonalLoop=1;jettySize=auto;html=1;exitX=1;exitY=0.5;exitDx=0;exitDy=0;entryX=0;entryY=0.5;entryDx=0;entryDy=0;entryPerimeter=0;strokeWidth=2;" parent="1" source="aGqC5lvothKLvyk-0-rh-12" target="aGqC5lvothKLvyk-0-rh-4" edge="1">
          <mxGeometry relative="1" as="geometry" />
        </mxCell>
      </root>
    </mxGraphModel>
  </diagram>
</mxfile>
